<ttFont>
    <TTGlyph name=".notdef" xMin="102" yMin="0" xMax="922" yMax="1462">
      <contour>
        <pt x="102" y="0" on="1"/>
        <pt x="102" y="1462" on="1"/>
        <pt x="922" y="1462" on="1"/>
        <pt x="922" y="0" on="1"/>
      </contour>
      <contour>
        <pt x="201" y="98" on="1"/>
        <pt x="823" y="98" on="1"/>
        <pt x="823" y="1364" on="1"/>
        <pt x="201" y="1364" on="1"/>
      </contour>
    </TTGlyph>
    <TTGlyph name="glyph00004" xMin="20" yMin="0" xMax="555" yMax="1580">
      <contour>
        <pt x="20" y="1580" on="1"/>
        <pt x="283" y="1580" on="0"/>
        <pt x="555" y="1265" on="0"/>
        <pt x="555" y="957" on="1"/>
        <pt x="555" y="0" on="1"/>
        <pt x="371" y="0" on="1"/>
        <pt x="371" y="957" on="1"/>
        <pt x="371" y="1177" on="0"/>
        <pt x="190" y="1410" on="0"/>
        <pt x="20" y="1410" on="1"/>
      </contour>
    </TTGlyph>
    <TTGlyph name="glyph00005" xMin="20" yMin="0" xMax="600" yMax="1580">
      <contour>
        <pt x="600" y="0" on="1"/>
        <pt x="416" y="0" on="1"/>
        <pt x="416" y="1305" on="1"/>
        <pt x="366" y="1246" on="0"/>
        <pt x="136" y="1116" on="0"/>
        <pt x="20" y="1083" on="1"/>
        <pt x="20" y="1253" on="1"/>
        <pt x="133" y="1285" on="0"/>
        <pt x="373" y="1469" on="0"/>
        <pt x="436" y="1580" on="1"/>
        <pt x="600" y="1580" on="1"/>
      </contour>
    </TTGlyph>
    <TTGlyph name="glyph00006" xMin="100" yMin="-20" xMax="801" yMax="1580">
      <contour>
        <pt x="801" y="1580" on="1"/>
        <pt x="801" y="845" on="1"/>
        <pt x="707" y="845" on="1"/>
        <pt x="647" y="885" on="0"/>
        <pt x="568" y="885" on="1"/>
        <pt x="536" y="885" on="0"/>
        <pt x="442" y="855" on="0"/>
        <pt x="355" y="776" on="0"/>
        <pt x="294" y="638" on="0"/>
        <pt x="294" y="531" on="1"/>
        <pt x="294" y="353" on="0"/>
        <pt x="546" y="157" on="0"/>
        <pt x="780" y="150" on="1"/>
        <pt x="780" y="-20" on="1"/>
        <pt x="458" y="-20" on="0"/>
        <pt x="100" y="272" on="0"/>
        <pt x="100" y="532" on="1"/>
        <pt x="100" y="680" on="0"/>
        <pt x="219" y="917" on="0"/>
        <pt x="420" y="1053" on="0"/>
        <pt x="528" y="1053" on="1"/>
        <pt x="554" y="1053" on="1"/>
        <pt x="578" y="1053" on="0"/>
        <pt x="617" y="1042" on="1"/>
        <pt x="617" y="1580" on="1"/>
      </contour>
    </TTGlyph>
    <TTGlyph name="glyph00007" xMin="20" yMin="0" xMax="555" yMax="1580">
      <contour>
        <pt x="20" y="170" on="1"/>
        <pt x="190" y="170" on="0"/>
        <pt x="371" y="403" on="0"/>
        <pt x="371" y="623" on="1"/>
        <pt x="371" y="1580" on="1"/>
        <pt x="555" y="1580" on="1"/>
        <pt x="555" y="623" on="1"/>
        <pt x="555" y="315" on="0"/>
        <pt x="284" y="0" on="0"/>
        <pt x="20" y="0" on="1"/>
      </contour>
    </TTGlyph>
    <TTGlyph name="glyph00008" xMin="100" yMin="-20" xMax="985" yMax="1600">
      <contour>
        <pt x="664" y="873" on="1"/>
        <pt x="501" y="814" on="0"/>
        <pt x="286" y="572" on="0"/>
        <pt x="286" y="438" on="1"/>
        <pt x="286" y="299" on="0"/>
        <pt x="398" y="150" on="0"/>
        <pt x="505" y="150" on="1"/>
        <pt x="638" y="150" on="0"/>
        <pt x="792" y="366" on="0"/>
        <pt x="792" y="548" on="1"/>
        <pt x="792" y="847" on="0"/>
        <pt x="572" y="1310" on="0"/>
        <pt x="355" y="1459" on="1"/>
        <pt x="454" y="1600" on="1"/>
        <pt x="702" y="1453" on="0"/>
        <pt x="985" y="896" on="0"/>
        <pt x="985" y="567" on="1"/>
        <pt x="985" y="298" on="0"/>
        <pt x="725" y="-20" on="0"/>
        <pt x="506" y="-20" on="1"/>
        <pt x="319" y="-20" on="0"/>
        <pt x="100" y="230" on="0"/>
        <pt x="100" y="436" on="1"/>
        <pt x="100" y="551" on="0"/>
        <pt x="218" y="783" on="0"/>
        <pt x="440" y="975" on="0"/>
        <pt x="596" y="1035" on="1"/>
      </contour>
    </TTGlyph>
    <TTGlyph name="glyph00009" xMin="100" yMin="-20" xMax="718" yMax="1600">
      <contour>
        <pt x="167" y="172" on="1"/>
        <pt x="225" y="150" on="0"/>
        <pt x="316" y="150" on="1"/>
        <pt x="427" y="150" on="0"/>
        <pt x="532" y="297" on="0"/>
        <pt x="532" y="443" on="1"/>
        <pt x="532" y="548" on="0"/>
        <pt x="428" y="764" on="0"/>
        <pt x="316" y="897" on="1"/>
        <pt x="203" y="1032" on="0"/>
        <pt x="100" y="1232" on="0"/>
        <pt x="100" y="1329" on="1"/>
        <pt x="100" y="1455" on="0"/>
        <pt x="262" y="1600" on="0"/>
        <pt x="397" y="1600" on="1"/>
        <pt x="470" y="1600" on="0"/>
        <pt x="572" y="1583" on="0"/>
        <pt x="630" y="1560" on="1"/>
        <pt x="590" y="1404" on="1"/>
        <pt x="516" y="1430" on="0"/>
        <pt x="410" y="1430" on="1"/>
        <pt x="342" y="1430" on="0"/>
        <pt x="286" y="1371" on="0"/>
        <pt x="286" y="1329" on="1"/>
        <pt x="286" y="1255" on="0"/>
        <pt x="379" y="1093" on="0"/>
        <pt x="502" y="948" on="1"/>
        <pt x="607" y="824" on="0"/>
        <pt x="718" y="573" on="0"/>
        <pt x="718" y="443" on="1"/>
        <pt x="718" y="224" on="0"/>
        <pt x="494" y="-20" on="0"/>
        <pt x="300" y="-20" on="1"/>
        <pt x="217" y="-20" on="0"/>
        <pt x="143" y="-1" on="1"/>
      </contour>
    </TTGlyph>
    <TTGlyph name="glyph00010" xMin="100" yMin="-20" xMax="877" yMax="1600">
      <contour>
        <pt x="877" y="28" on="1"/>
        <pt x="720" y="-20" on="0"/>
        <pt x="527" y="-20" on="1"/>
        <pt x="369" y="-20" on="0"/>
        <pt x="190" y="72" on="0"/>
        <pt x="100" y="267" on="0"/>
        <pt x="100" y="426" on="1"/>
        <pt x="100" y="713" on="0"/>
        <pt x="330" y="1360" on="0"/>
        <pt x="522" y="1600" on="1"/>
        <pt x="661" y="1512" on="1"/>
        <pt x="482" y="1265" on="0"/>
        <pt x="286" y="698" on="0"/>
        <pt x="286" y="428" on="1"/>
        <pt x="286" y="328" on="0"/>
        <pt x="324" y="216" on="0"/>
        <pt x="395" y="162" on="0"/>
        <pt x="493" y="150" on="0"/>
        <pt x="553" y="150" on="1"/>
        <pt x="633" y="150" on="0"/>
        <pt x="814" y="180" on="0"/>
        <pt x="877" y="203" on="1"/>
      </contour>
    </TTGlyph>
    <TTGlyph name="glyph00011" xMin="30" yMin="-20" xMax="953" yMax="1600">
      <contour>
        <pt x="953" y="28" on="1"/>
        <pt x="796" y="-20" on="0"/>
        <pt x="603" y="-20" on="1"/>
        <pt x="445" y="-20" on="0"/>
        <pt x="266" y="72" on="0"/>
        <pt x="176" y="267" on="0"/>
        <pt x="176" y="426" on="1"/>
        <pt x="176" y="730" on="0"/>
        <pt x="302" y="1069" on="1"/>
        <pt x="208" y="1046" on="0"/>
        <pt x="105" y="1046" on="1"/>
        <pt x="30" y="1049" on="1"/>
        <pt x="30" y="1219" on="1"/>
        <pt x="98" y="1216" on="1"/>
        <pt x="293" y="1216" on="0"/>
        <pt x="413" y="1316" on="1"/>
        <pt x="499" y="1477" on="0"/>
        <pt x="598" y="1600" on="1"/>
        <pt x="737" y="1512" on="1"/>
        <pt x="558" y="1265" on="0"/>
        <pt x="362" y="698" on="0"/>
        <pt x="362" y="428" on="1"/>
        <pt x="362" y="328" on="0"/>
        <pt x="400" y="216" on="0"/>
        <pt x="471" y="162" on="0"/>
        <pt x="569" y="150" on="0"/>
        <pt x="629" y="150" on="1"/>
        <pt x="709" y="150" on="0"/>
        <pt x="890" y="180" on="0"/>
        <pt x="953" y="203" on="1"/>
      </contour>
    </TTGlyph>
    <TTGlyph name="glyph00012" xMin="20" yMin="-20" xMax="672" yMax="1600">
      <contour>
        <pt x="672" y="33" on="1"/>
        <pt x="501" y="-20" on="1"/>
        <pt x="20" y="1547" on="1"/>
        <pt x="191" y="1600" on="1"/>
      </contour>
    </TTGlyph>
    <TTGlyph name="glyph00013" xMin="30" yMin="-20" xMax="793" yMax="1600">
      <contour>
        <pt x="30" y="121" on="1"/>
        <pt x="196" y="246" on="0"/>
        <pt x="307" y="404" on="1"/>
        <pt x="122" y="720" on="0"/>
        <pt x="122" y="1087" on="1"/>
        <pt x="122" y="1340" on="0"/>
        <pt x="272" y="1600" on="0"/>
        <pt x="411" y="1600" on="1"/>
        <pt x="550" y="1600" on="0"/>
        <pt x="701" y="1333" on="0"/>
        <pt x="701" y="1087" on="1"/>
        <pt x="701" y="720" on="0"/>
        <pt x="516" y="404" on="1"/>
        <pt x="630" y="243" on="0"/>
        <pt x="793" y="121" on="1"/>
        <pt x="704" y="-20" on="1"/>
        <pt x="538" y="92" on="0"/>
        <pt x="411" y="252" on="1"/>
        <pt x="286" y="94" on="0"/>
        <pt x="119" y="-20" on="1"/>
      </contour>
      <contour>
        <pt x="515" y="1085" on="1"/>
        <pt x="515" y="1256" on="0"/>
        <pt x="460" y="1429" on="0"/>
        <pt x="411" y="1429" on="1"/>
        <pt x="362" y="1429" on="0"/>
        <pt x="308" y="1257" on="0"/>
        <pt x="308" y="1085" on="1"/>
        <pt x="308" y="814" on="0"/>
        <pt x="411" y="587" on="1"/>
        <pt x="515" y="817" on="0"/>
      </contour>
    </TTGlyph>
    <TTGlyph name="glyph00014" xMin="180" yMin="-482" xMax="715" yMax="1098">
      <contour>
        <pt x="715" y="-482" on="1"/>
        <pt x="452" y="-482" on="0"/>
        <pt x="180" y="-167" on="0"/>
        <pt x="180" y="141" on="1"/>
        <pt x="180" y="1098" on="1"/>
        <pt x="364" y="1098" on="1"/>
        <pt x="364" y="141" on="1"/>
        <pt x="364" y="-79" on="0"/>
        <pt x="545" y="-312" on="0"/>
        <pt x="715" y="-312" on="1"/>
      </contour>
    </TTGlyph>
    <TTGlyph name="glyph00015" xMin="180" yMin="-482" xMax="760" yMax="1098">
      <contour>
        <pt x="180" y="1098" on="1"/>
        <pt x="364" y="1098" on="1"/>
        <pt x="364" y="-207" on="1"/>
        <pt x="411" y="-152" on="0"/>
        <pt x="638" y="-20" on="0"/>
        <pt x="760" y="15" on="1"/>
        <pt x="760" y="-155" on="1"/>
        <pt x="638" y="-192" on="0"/>
        <pt x="403" y="-376" on="0"/>
        <pt x="344" y="-482" on="1"/>
        <pt x="180" y="-482" on="1"/>
      </contour>
    </TTGlyph>
    <TTGlyph name="glyph00016" xMin="160" yMin="-482" xMax="861" yMax="1118">
      <contour>
        <pt x="160" y="-482" on="1"/>
        <pt x="160" y="253" on="1"/>
        <pt x="254" y="253" on="1"/>
        <pt x="314" y="213" on="0"/>
        <pt x="393" y="213" on="1"/>
        <pt x="425" y="213" on="0"/>
        <pt x="519" y="243" on="0"/>
        <pt x="606" y="322" on="0"/>
        <pt x="667" y="460" on="0"/>
        <pt x="667" y="567" on="1"/>
        <pt x="667" y="745" on="0"/>
        <pt x="415" y="941" on="0"/>
        <pt x="181" y="948" on="1"/>
        <pt x="181" y="1118" on="1"/>
        <pt x="503" y="1118" on="0"/>
        <pt x="861" y="826" on="0"/>
        <pt x="861" y="566" on="1"/>
        <pt x="861" y="423" on="0"/>
        <pt x="749" y="189" on="0"/>
        <pt x="543" y="45" on="0"/>
        <pt x="433" y="45" on="1"/>
        <pt x="408" y="45" on="1"/>
        <pt x="383" y="45" on="0"/>
        <pt x="344" y="56" on="1"/>
        <pt x="344" y="-482" on="1"/>
      </contour>
    </TTGlyph>
    <TTGlyph name="glyph00017" xMin="180" yMin="-482" xMax="715" yMax="1098">
      <contour>
        <pt x="715" y="928" on="1"/>
        <pt x="545" y="928" on="0"/>
        <pt x="364" y="695" on="0"/>
        <pt x="364" y="475" on="1"/>
        <pt x="364" y="-482" on="1"/>
        <pt x="180" y="-482" on="1"/>
        <pt x="180" y="475" on="1"/>
        <pt x="180" y="783" on="0"/>
        <pt x="452" y="1098" on="0"/>
        <pt x="715" y="1098" on="1"/>
      </contour>
    </TTGlyph>
    <TTGlyph name="glyph00018" xMin="130" yMin="-502" xMax="1015" yMax="1118">
      <contour>
        <pt x="451" y="225" on="1"/>
        <pt x="614" y="284" on="0"/>
        <pt x="829" y="526" on="0"/>
        <pt x="829" y="660" on="1"/>
        <pt x="829" y="800" on="0"/>
        <pt x="717" y="948" on="0"/>
        <pt x="610" y="948" on="1"/>
        <pt x="477" y="948" on="0"/>
        <pt x="323" y="732" on="0"/>
        <pt x="323" y="550" on="1"/>
        <pt x="323" y="251" on="0"/>
        <pt x="542" y="-213" on="0"/>
        <pt x="760" y="-361" on="1"/>
        <pt x="661" y="-502" on="1"/>
        <pt x="413" y="-355" on="0"/>
        <pt x="130" y="202" on="0"/>
        <pt x="130" y="531" on="1"/>
        <pt x="130" y="805" on="0"/>
        <pt x="383" y="1118" on="0"/>
        <pt x="599" y="1118" on="1"/>
        <pt x="800" y="1118" on="0"/>
        <pt x="1015" y="880" on="0"/>
        <pt x="1015" y="662" on="1"/>
        <pt x="1015" y="544" on="0"/>
        <pt x="897" y="313" on="0"/>
        <pt x="675" y="123" on="0"/>
        <pt x="519" y="63" on="1"/>
      </contour>
    </TTGlyph>
    <TTGlyph name="glyph00019" xMin="100" yMin="-502" xMax="718" yMax="1118">
      <contour>
        <pt x="143" y="1099" on="1"/>
        <pt x="217" y="1118" on="0"/>
        <pt x="300" y="1118" on="1"/>
        <pt x="494" y="1118" on="0"/>
        <pt x="718" y="874" on="0"/>
        <pt x="718" y="655" on="1"/>
        <pt x="718" y="525" on="0"/>
        <pt x="607" y="273" on="0"/>
        <pt x="502" y="150" on="1"/>
        <pt x="379" y="5" on="0"/>
        <pt x="286" y="-157" on="0"/>
        <pt x="286" y="-231" on="1"/>
        <pt x="286" y="-273" on="0"/>
        <pt x="342" y="-332" on="0"/>
        <pt x="410" y="-332" on="1"/>
        <pt x="516" y="-332" on="0"/>
        <pt x="590" y="-306" on="1"/>
        <pt x="630" y="-462" on="1"/>
        <pt x="571" y="-486" on="0"/>
        <pt x="465" y="-502" on="0"/>
        <pt x="397" y="-502" on="1"/>
        <pt x="262" y="-502" on="0"/>
        <pt x="100" y="-357" on="0"/>
        <pt x="100" y="-231" on="1"/>
        <pt x="100" y="-135" on="0"/>
        <pt x="204" y="68" on="0"/>
        <pt x="316" y="201" on="1"/>
        <pt x="429" y="336" on="0"/>
        <pt x="532" y="551" on="0"/>
        <pt x="532" y="655" on="1"/>
        <pt x="532" y="948" on="0"/>
        <pt x="316" y="948" on="1"/>
        <pt x="225" y="948" on="0"/>
        <pt x="167" y="926" on="1"/>
      </contour>
    </TTGlyph>
    <TTGlyph name="glyph00020" xMin="30" yMin="-502" xMax="807" yMax="1118">
      <contour>
        <pt x="30" y="1070" on="1"/>
        <pt x="187" y="1118" on="0"/>
        <pt x="380" y="1118" on="1"/>
        <pt x="538" y="1118" on="0"/>
        <pt x="717" y="1026" on="0"/>
        <pt x="807" y="831" on="0"/>
        <pt x="807" y="672" on="1"/>
        <pt x="807" y="385" on="0"/>
        <pt x="577" y="-262" on="0"/>
        <pt x="385" y="-502" on="1"/>
        <pt x="246" y="-414" on="1"/>
        <pt x="428" y="-161" on="0"/>
        <pt x="621" y="402" on="0"/>
        <pt x="621" y="670" on="1"/>
        <pt x="621" y="770" on="0"/>
        <pt x="583" y="882" on="0"/>
        <pt x="512" y="936" on="0"/>
        <pt x="414" y="948" on="0"/>
        <pt x="354" y="948" on="1"/>
        <pt x="274" y="948" on="0"/>
        <pt x="93" y="918" on="0"/>
        <pt x="30" y="895" on="1"/>
      </contour>
    </TTGlyph>
    <TTGlyph name="glyph00021" xMin="30" yMin="-502" xMax="953" yMax="1118">
      <contour>
        <pt x="30" y="1070" on="1"/>
        <pt x="187" y="1118" on="0"/>
        <pt x="380" y="1118" on="1"/>
        <pt x="538" y="1118" on="0"/>
        <pt x="717" y="1026" on="0"/>
        <pt x="807" y="831" on="0"/>
        <pt x="807" y="672" on="1"/>
        <pt x="807" y="370" on="0"/>
        <pt x="680" y="29" on="1"/>
        <pt x="775" y="52" on="0"/>
        <pt x="878" y="52" on="1"/>
        <pt x="953" y="49" on="1"/>
        <pt x="953" y="-121" on="1"/>
        <pt x="885" y="-118" on="1"/>
        <pt x="689" y="-118" on="0"/>
        <pt x="569" y="-218" on="1"/>
        <pt x="490" y="-369" on="0"/>
        <pt x="385" y="-502" on="1"/>
        <pt x="246" y="-414" on="1"/>
        <pt x="428" y="-161" on="0"/>
        <pt x="621" y="402" on="0"/>
        <pt x="621" y="670" on="1"/>
        <pt x="621" y="770" on="0"/>
        <pt x="583" y="882" on="0"/>
        <pt x="512" y="936" on="0"/>
        <pt x="414" y="948" on="0"/>
        <pt x="354" y="948" on="1"/>
        <pt x="274" y="948" on="0"/>
        <pt x="93" y="918" on="0"/>
        <pt x="30" y="895" on="1"/>
      </contour>
    </TTGlyph>
    <TTGlyph name="glyph00022" xMin="20" yMin="-502" xMax="672" yMax="1118">
      <contour>
        <pt x="501" y="1118" on="1"/>
        <pt x="672" y="1065" on="1"/>
        <pt x="191" y="-502" on="1"/>
        <pt x="20" y="-449" on="1"/>
      </contour>
    </TTGlyph>
    <TTGlyph name="glyph00023" xMin="30" yMin="-502" xMax="793" yMax="1118">
      <contour>
        <pt x="119" y="1118" on="1"/>
        <pt x="286" y="1004" on="0"/>
        <pt x="411" y="846" on="1"/>
        <pt x="538" y="1006" on="0"/>
        <pt x="704" y="1118" on="1"/>
        <pt x="793" y="977" on="1"/>
        <pt x="630" y="855" on="0"/>
        <pt x="516" y="694" on="1"/>
        <pt x="701" y="378" on="0"/>
        <pt x="701" y="11" on="1"/>
        <pt x="701" y="-235" on="0"/>
        <pt x="550" y="-502" on="0"/>
        <pt x="411" y="-502" on="1"/>
        <pt x="271" y="-502" on="0"/>
        <pt x="122" y="-241" on="0"/>
        <pt x="122" y="11" on="1"/>
        <pt x="122" y="378" on="0"/>
        <pt x="307" y="694" on="1"/>
        <pt x="196" y="852" on="0"/>
        <pt x="30" y="977" on="1"/>
      </contour>
      <contour>
        <pt x="515" y="13" on="1"/>
        <pt x="515" y="281" on="0"/>
        <pt x="411" y="511" on="1"/>
        <pt x="308" y="284" on="0"/>
        <pt x="308" y="13" on="1"/>
        <pt x="308" y="-158" on="0"/>
        <pt x="362" y="-331" on="0"/>
        <pt x="411" y="-331" on="1"/>
        <pt x="460" y="-331" on="0"/>
        <pt x="515" y="-159" on="0"/>
      </contour>
    </TTGlyph>
    <TTGlyph name="glyph00024" xMin="115" yMin="-20" xMax="773" yMax="1118">
      <contour>
        <pt x="773" y="942" on="1"/>
        <pt x="740" y="945" on="1"/>
        <pt x="684" y="948" on="1"/>
        <pt x="509" y="948" on="0"/>
        <pt x="301" y="731" on="0"/>
        <pt x="301" y="548" on="1"/>
        <pt x="301" y="367" on="0"/>
        <pt x="510" y="150" on="0"/>
        <pt x="684" y="150" on="1"/>
        <pt x="740" y="153" on="1"/>
        <pt x="773" y="156" on="1"/>
        <pt x="773" y="-14" on="1"/>
        <pt x="713" y="-20" on="0"/>
        <pt x="682" y="-20" on="1"/>
        <pt x="511" y="-20" on="0"/>
        <pt x="254" y="114" on="0"/>
        <pt x="115" y="370" on="0"/>
        <pt x="115" y="546" on="1"/>
        <pt x="115" y="724" on="0"/>
        <pt x="254" y="983" on="0"/>
        <pt x="512" y="1118" on="0"/>
        <pt x="682" y="1118" on="1"/>
        <pt x="713" y="1118" on="0"/>
        <pt x="773" y="1112" on="1"/>
      </contour>
    </TTGlyph>
    <TTGlyph name="glyph00025" xMin="80" yMin="-20" xMax="822" yMax="1118">
      <contour>
        <pt x="822" y="948" on="1"/>
        <pt x="718" y="948" on="0"/>
        <pt x="562" y="727" on="0"/>
        <pt x="540" y="547" on="1"/>
        <pt x="507" y="272" on="0"/>
        <pt x="269" y="-20" on="0"/>
        <pt x="80" y="-20" on="1"/>
        <pt x="80" y="150" on="1"/>
        <pt x="185" y="150" on="0"/>
        <pt x="338" y="373" on="0"/>
        <pt x="364" y="562" on="1"/>
        <pt x="400" y="824" on="0"/>
        <pt x="636" y="1118" on="0"/>
        <pt x="822" y="1118" on="1"/>
      </contour>
    </TTGlyph>
    <TTGlyph name="glyph00026" xMin="180" yMin="0" xMax="364" yMax="1098">
      <contour>
        <pt x="364" y="1098" on="1"/>
        <pt x="364" y="0" on="1"/>
        <pt x="180" y="0" on="1"/>
        <pt x="180" y="1098" on="1"/>
      </contour>
    </TTGlyph>
    <TTGlyph name="glyph00027" xMin="150" yMin="-20" xMax="685" yMax="1098">
      <contour>
        <pt x="685" y="-20" on="1"/>
        <pt x="422" y="-20" on="0"/>
        <pt x="150" y="295" on="0"/>
        <pt x="150" y="603" on="1"/>
        <pt x="150" y="1098" on="1"/>
        <pt x="334" y="1098" on="1"/>
        <pt x="334" y="603" on="1"/>
        <pt x="334" y="383" on="0"/>
        <pt x="515" y="150" on="0"/>
        <pt x="685" y="150" on="1"/>
      </contour>
    </TTGlyph>
    <TTGlyph name="glyph00028" xMin="80" yMin="-20" xMax="615" yMax="1098">
      <contour>
        <pt x="80" y="150" on="1"/>
        <pt x="250" y="150" on="0"/>
        <pt x="431" y="383" on="0"/>
        <pt x="431" y="603" on="1"/>
        <pt x="431" y="1098" on="1"/>
        <pt x="615" y="1098" on="1"/>
        <pt x="615" y="603" on="1"/>
        <pt x="615" y="295" on="0"/>
        <pt x="344" y="-20" on="0"/>
        <pt x="80" y="-20" on="1"/>
      </contour>
    </TTGlyph>
    <TTGlyph name="glyph00029" xMin="150" yMin="0" xMax="685" yMax="1118">
      <contour>
        <pt x="685" y="948" on="1"/>
        <pt x="515" y="948" on="0"/>
        <pt x="334" y="715" on="0"/>
        <pt x="334" y="495" on="1"/>
        <pt x="334" y="0" on="1"/>
        <pt x="150" y="0" on="1"/>
        <pt x="150" y="495" on="1"/>
        <pt x="150" y="803" on="0"/>
        <pt x="422" y="1118" on="0"/>
        <pt x="685" y="1118" on="1"/>
      </contour>
    </TTGlyph>
    <TTGlyph name="glyph00030" xMin="80" yMin="0" xMax="615" yMax="1118">
      <contour>
        <pt x="80" y="1118" on="1"/>
        <pt x="343" y="1118" on="0"/>
        <pt x="615" y="803" on="0"/>
        <pt x="615" y="495" on="1"/>
        <pt x="615" y="0" on="1"/>
        <pt x="431" y="0" on="1"/>
        <pt x="431" y="495" on="1"/>
        <pt x="431" y="715" on="0"/>
        <pt x="250" y="948" on="0"/>
        <pt x="80" y="948" on="1"/>
      </contour>
    </TTGlyph>
    <TTGlyph name="glyph00031" xMin="20" yMin="0" xMax="1030" yMax="1118">
      <contour>
        <pt x="1030" y="1053" on="1"/>
        <pt x="608" y="0" on="1"/>
        <pt x="441" y="0" on="1"/>
        <pt x="20" y="1053" on="1"/>
        <pt x="196" y="1118" on="1"/>
        <pt x="525" y="274" on="1"/>
        <pt x="854" y="1118" on="1"/>
      </contour>
    </TTGlyph>
    <TTGlyph name="glyph00032" xMin="20" yMin="-20" xMax="616" yMax="1098">
      <contour>
        <pt x="299" y="580" on="1"/>
        <pt x="381" y="558" on="0"/>
        <pt x="465" y="432" on="0"/>
        <pt x="465" y="311" on="1"/>
        <pt x="465" y="273" on="1"/>
        <pt x="465" y="217" on="0"/>
        <pt x="493" y="174" on="0"/>
        <pt x="558" y="150" on="0"/>
        <pt x="616" y="150" on="1"/>
        <pt x="616" y="-20" on="1"/>
        <pt x="494" y="-20" on="0"/>
        <pt x="349" y="43" on="0"/>
        <pt x="281" y="157" on="0"/>
        <pt x="281" y="273" on="1"/>
        <pt x="281" y="311" on="1"/>
        <pt x="281" y="368" on="0"/>
        <pt x="252" y="414" on="0"/>
        <pt x="188" y="440" on="0"/>
        <pt x="130" y="440" on="1"/>
        <pt x="20" y="440" on="1"/>
        <pt x="20" y="610" on="1"/>
        <pt x="166" y="656" on="0"/>
        <pt x="389" y="933" on="0"/>
        <pt x="419" y="1098" on="1"/>
        <pt x="603" y="1098" on="1"/>
        <pt x="584" y="931" on="0"/>
        <pt x="421" y="656" on="0"/>
      </contour>
    </TTGlyph>
    <TTGlyph name="glyph00033" xMin="60" yMin="-20" xMax="956" yMax="1118">
      <contour>
        <pt x="955" y="928" on="1"/>
        <pt x="835" y="948" on="0"/>
        <pt x="737" y="948" on="1"/>
        <pt x="620" y="948" on="0"/>
        <pt x="486" y="824" on="0"/>
        <pt x="486" y="716" on="1"/>
        <pt x="486" y="615" on="0"/>
        <pt x="616" y="490" on="0"/>
        <pt x="725" y="490" on="1"/>
        <pt x="758" y="490" on="0"/>
        <pt x="820" y="495" on="1"/>
        <pt x="820" y="445" on="1"/>
        <pt x="805" y="232" on="0"/>
        <pt x="479" y="-20" on="0"/>
        <pt x="222" y="-20" on="1"/>
        <pt x="135" y="-20" on="0"/>
        <pt x="60" y="-6" on="1"/>
        <pt x="84" y="162" on="1"/>
        <pt x="156" y="150" on="0"/>
        <pt x="215" y="150" on="1"/>
        <pt x="345" y="150" on="0"/>
        <pt x="554" y="248" on="0"/>
        <pt x="602" y="335" on="1"/>
        <pt x="466" y="370" on="0"/>
        <pt x="300" y="576" on="0"/>
        <pt x="300" y="716" on="1"/>
        <pt x="300" y="897" on="0"/>
        <pt x="543" y="1118" on="0"/>
        <pt x="735" y="1118" on="1"/>
        <pt x="856" y="1118" on="0"/>
        <pt x="956" y="1099" on="1"/>
      </contour>
    </TTGlyph>
    <TTGlyph name="glyph00034" xMin="100" yMin="-20" xMax="758" yMax="1118">
      <contour>
        <pt x="100" y="1112" on="1"/>
        <pt x="160" y="1118" on="0"/>
        <pt x="191" y="1118" on="1"/>
        <pt x="362" y="1118" on="0"/>
        <pt x="618" y="983" on="0"/>
        <pt x="758" y="724" on="0"/>
        <pt x="758" y="546" on="1"/>
        <pt x="758" y="370" on="0"/>
        <pt x="620" y="115" on="0"/>
        <pt x="363" y="-20" on="0"/>
        <pt x="191" y="-20" on="1"/>
        <pt x="160" y="-20" on="0"/>
        <pt x="100" y="-14" on="1"/>
        <pt x="100" y="156" on="1"/>
        <pt x="133" y="153" on="1"/>
        <pt x="189" y="150" on="1"/>
        <pt x="300" y="150" on="0"/>
        <pt x="475" y="245" on="0"/>
        <pt x="572" y="426" on="0"/>
        <pt x="572" y="548" on="1"/>
        <pt x="572" y="731" on="0"/>
        <pt x="364" y="948" on="0"/>
        <pt x="189" y="948" on="1"/>
        <pt x="133" y="945" on="1"/>
        <pt x="100" y="942" on="1"/>
      </contour>
    </TTGlyph>
    <TTGlyph name="glyph00035" xMin="80" yMin="-20" xMax="822" yMax="1118">
      <contour>
        <pt x="80" y="1118" on="1"/>
        <pt x="266" y="1118" on="0"/>
        <pt x="502" y="824" on="0"/>
        <pt x="538" y="562" on="1"/>
        <pt x="563" y="374" on="0"/>
        <pt x="716" y="150" on="0"/>
        <pt x="822" y="150" on="1"/>
        <pt x="822" y="-20" on="1"/>
        <pt x="633" y="-20" on="0"/>
        <pt x="396" y="272" on="0"/>
        <pt x="362" y="547" on="1"/>
        <pt x="340" y="726" on="0"/>
        <pt x="185" y="948" on="0"/>
        <pt x="80" y="948" on="1"/>
      </contour>
    </TTGlyph>
    <TTGlyph name="glyph00036" xMin="120" yMin="0" xMax="709" yMax="1098">
      <contour>
        <pt x="525" y="0" on="1"/>
        <pt x="525" y="621" on="1"/>
        <pt x="282" y="364" on="1"/>
        <pt x="120" y="484" on="1"/>
        <pt x="120" y="1098" on="1"/>
        <pt x="304" y="1098" on="1"/>
        <pt x="304" y="622" on="1"/>
        <pt x="545" y="878" on="1"/>
        <pt x="709" y="758" on="1"/>
        <pt x="709" y="0" on="1"/>
      </contour>
    </TTGlyph>
    <TTGlyph name="glyph00037" xMin="130" yMin="-20" xMax="775" yMax="1098">
      <contour>
        <pt x="765" y="-20" on="1"/>
        <pt x="568" y="-20" on="0"/>
        <pt x="286" y="187" on="0"/>
        <pt x="130" y="614" on="0"/>
        <pt x="130" y="903" on="1"/>
        <pt x="130" y="1098" on="1"/>
        <pt x="775" y="1098" on="1"/>
        <pt x="775" y="934" on="1"/>
        <pt x="314" y="934" on="1"/>
        <pt x="314" y="903" on="1"/>
        <pt x="314" y="661" on="0"/>
        <pt x="420" y="324" on="0"/>
        <pt x="622" y="157" on="0"/>
        <pt x="765" y="153" on="1"/>
      </contour>
    </TTGlyph>
    <TTGlyph name="glyph00038" xMin="100" yMin="-20" xMax="745" yMax="1098">
      <contour>
        <pt x="110" y="153" on="1"/>
        <pt x="330" y="160" on="0"/>
        <pt x="561" y="538" on="0"/>
        <pt x="561" y="903" on="1"/>
        <pt x="561" y="934" on="1"/>
        <pt x="100" y="934" on="1"/>
        <pt x="100" y="1098" on="1"/>
        <pt x="745" y="1098" on="1"/>
        <pt x="745" y="903" on="1"/>
        <pt x="745" y="615" on="0"/>
        <pt x="590" y="188" on="0"/>
        <pt x="308" y="-20" on="0"/>
        <pt x="110" y="-20" on="1"/>
      </contour>
    </TTGlyph>
    <TTGlyph name="glyph00039" xMin="50" yMin="0" xMax="826" yMax="1098">
      <contour>
        <pt x="50" y="1098" on="1"/>
        <pt x="826" y="1098" on="1"/>
        <pt x="826" y="939" on="1"/>
        <pt x="624" y="812" on="0"/>
        <pt x="388" y="298" on="0"/>
        <pt x="388" y="0" on="1"/>
        <pt x="204" y="0" on="1"/>
        <pt x="204" y="248" on="0"/>
        <pt x="415" y="766" on="0"/>
        <pt x="590" y="934" on="1"/>
        <pt x="50" y="934" on="1"/>
      </contour>
    </TTGlyph>
    <TTGlyph name="glyph00040" xMin="130" yMin="-20" xMax="1078" yMax="1118">
      <contour>
        <pt x="1078" y="546" on="1"/>
        <pt x="1078" y="374" on="0"/>
        <pt x="959" y="116" on="0"/>
        <pt x="744" y="-20" on="0"/>
        <pt x="602" y="-20" on="1"/>
        <pt x="462" y="-20" on="0"/>
        <pt x="248" y="116" on="0"/>
        <pt x="130" y="373" on="0"/>
        <pt x="130" y="546" on="1"/>
        <pt x="130" y="713" on="0"/>
        <pt x="244" y="974" on="0"/>
        <pt x="461" y="1118" on="0"/>
        <pt x="606" y="1118" on="1"/>
        <pt x="751" y="1118" on="0"/>
        <pt x="965" y="973" on="0"/>
        <pt x="1078" y="712" on="0"/>
      </contour>
      <contour>
        <pt x="892" y="548" on="1"/>
        <pt x="892" y="666" on="0"/>
        <pt x="820" y="849" on="0"/>
        <pt x="691" y="948" on="0"/>
        <pt x="613" y="948" on="1"/>
        <pt x="478" y="948" on="0"/>
        <pt x="316" y="728" on="0"/>
        <pt x="316" y="548" on="1"/>
        <pt x="316" y="428" on="0"/>
        <pt x="390" y="246" on="0"/>
        <pt x="520" y="150" on="0"/>
        <pt x="604" y="150" on="1"/>
        <pt x="687" y="150" on="0"/>
        <pt x="818" y="247" on="0"/>
        <pt x="892" y="429" on="0"/>
      </contour>
    </TTGlyph>
    <TTGlyph name="glyph00041" xMin="20" yMin="-20" xMax="1030" yMax="1098">
      <contour>
        <pt x="854" y="-20" on="1"/>
        <pt x="525" y="824" on="1"/>
        <pt x="196" y="-20" on="1"/>
        <pt x="20" y="45" on="1"/>
        <pt x="441" y="1098" on="1"/>
        <pt x="608" y="1098" on="1"/>
        <pt x="1030" y="45" on="1"/>
      </contour>
    </TTGlyph>
    <TTGlyph name="glyph00042" xMin="80" yMin="0" xMax="676" yMax="1118">
      <contour>
        <pt x="397" y="518" on="1"/>
        <pt x="315" y="540" on="0"/>
        <pt x="231" y="666" on="0"/>
        <pt x="231" y="787" on="1"/>
        <pt x="231" y="825" on="1"/>
        <pt x="231" y="881" on="0"/>
        <pt x="203" y="924" on="0"/>
        <pt x="140" y="948" on="0"/>
        <pt x="80" y="948" on="1"/>
        <pt x="80" y="1118" on="1"/>
        <pt x="202" y="1118" on="0"/>
        <pt x="347" y="1055" on="0"/>
        <pt x="415" y="941" on="0"/>
        <pt x="415" y="825" on="1"/>
        <pt x="415" y="787" on="1"/>
        <pt x="415" y="730" on="0"/>
        <pt x="444" y="683" on="0"/>
        <pt x="510" y="658" on="0"/>
        <pt x="566" y="658" on="1"/>
        <pt x="676" y="658" on="1"/>
        <pt x="676" y="488" on="1"/>
        <pt x="530" y="443" on="0"/>
        <pt x="306" y="164" on="0"/>
        <pt x="277" y="0" on="1"/>
        <pt x="93" y="0" on="1"/>
        <pt x="109" y="159" on="0"/>
        <pt x="273" y="441" on="0"/>
      </contour>
    </TTGlyph>
    <TTGlyph name="glyph00043" xMin="80" yMin="-20" xMax="976" yMax="1118">
      <contour>
        <pt x="80" y="1099" on="1"/>
        <pt x="180" y="1118" on="0"/>
        <pt x="301" y="1118" on="1"/>
        <pt x="494" y="1118" on="0"/>
        <pt x="736" y="896" on="0"/>
        <pt x="736" y="716" on="1"/>
        <pt x="736" y="578" on="0"/>
        <pt x="571" y="371" on="0"/>
        <pt x="433" y="335" on="1"/>
        <pt x="481" y="248" on="0"/>
        <pt x="690" y="150" on="0"/>
        <pt x="821" y="150" on="1"/>
        <pt x="880" y="150" on="0"/>
        <pt x="952" y="162" on="1"/>
        <pt x="976" y="-6" on="1"/>
        <pt x="901" y="-20" on="0"/>
        <pt x="814" y="-20" on="1"/>
        <pt x="558" y="-20" on="0"/>
        <pt x="231" y="232" on="0"/>
        <pt x="216" y="445" on="1"/>
        <pt x="216" y="495" on="1"/>
        <pt x="278" y="490" on="0"/>
        <pt x="311" y="490" on="1"/>
        <pt x="420" y="490" on="0"/>
        <pt x="550" y="615" on="0"/>
        <pt x="550" y="716" on="1"/>
        <pt x="550" y="823" on="0"/>
        <pt x="417" y="948" on="0"/>
        <pt x="299" y="948" on="1"/>
        <pt x="201" y="948" on="0"/>
        <pt x="81" y="928" on="1"/>
      </contour>
    </TTGlyph>
    <TTGlyph name="glyph00044" xMin="100" yMin="-20" xMax="1246" yMax="1118">
      <contour>
        <pt x="726" y="147" on="1"/>
        <pt x="892" y="168" on="0"/>
        <pt x="1060" y="374" on="0"/>
        <pt x="1060" y="548" on="1"/>
        <pt x="1060" y="747" on="0"/>
        <pt x="872" y="948" on="0"/>
        <pt x="669" y="948" on="1"/>
        <pt x="501" y="948" on="0"/>
        <pt x="314" y="801" on="0"/>
        <pt x="314" y="666" on="1"/>
        <pt x="314" y="565" on="0"/>
        <pt x="444" y="440" on="0"/>
        <pt x="553" y="440" on="1"/>
        <pt x="586" y="440" on="0"/>
        <pt x="648" y="445" on="1"/>
        <pt x="648" y="404" on="1"/>
        <pt x="632" y="207" on="0"/>
        <pt x="338" y="-20" on="0"/>
        <pt x="100" y="-20" on="1"/>
        <pt x="100" y="150" on="1"/>
        <pt x="226" y="150" on="0"/>
        <pt x="382" y="217" on="0"/>
        <pt x="425" y="287" on="1"/>
        <pt x="288" y="325" on="0"/>
        <pt x="128" y="530" on="0"/>
        <pt x="128" y="666" on="1"/>
        <pt x="128" y="794" on="0"/>
        <pt x="262" y="1002" on="0"/>
        <pt x="507" y="1118" on="0"/>
        <pt x="664" y="1118" on="1"/>
        <pt x="941" y="1118" on="0"/>
        <pt x="1246" y="818" on="0"/>
        <pt x="1246" y="546" on="1"/>
        <pt x="1246" y="380" on="0"/>
        <pt x="1113" y="125" on="0"/>
        <pt x="874" y="-17" on="0"/>
        <pt x="726" y="-20" on="1"/>
      </contour>
    </TTGlyph>
    <TTGlyph name="glyph00045" xMin="100" yMin="-20" xMax="1257" yMax="1118">
      <contour>
        <pt x="100" y="1115" on="1"/>
        <pt x="139" y="1118" on="0"/>
        <pt x="216" y="1118" on="1"/>
        <pt x="408" y="1118" on="0"/>
        <pt x="631" y="922" on="0"/>
        <pt x="631" y="756" on="1"/>
        <pt x="631" y="619" on="0"/>
        <pt x="476" y="440" on="0"/>
        <pt x="337" y="418" on="1"/>
        <pt x="371" y="284" on="0"/>
        <pt x="557" y="150" on="0"/>
        <pt x="703" y="150" on="1"/>
        <pt x="884" y="150" on="0"/>
        <pt x="1071" y="357" on="0"/>
        <pt x="1071" y="550" on="1"/>
        <pt x="1071" y="727" on="0"/>
        <pt x="892" y="938" on="0"/>
        <pt x="737" y="948" on="1"/>
        <pt x="737" y="1118" on="1"/>
        <pt x="974" y="1107" on="0"/>
        <pt x="1257" y="801" on="0"/>
        <pt x="1257" y="552" on="1"/>
        <pt x="1257" y="381" on="0"/>
        <pt x="1124" y="121" on="0"/>
        <pt x="872" y="-20" on="0"/>
        <pt x="700" y="-20" on="1"/>
        <pt x="521" y="-20" on="0"/>
        <pt x="266" y="117" on="0"/>
        <pt x="131" y="363" on="0"/>
        <pt x="131" y="525" on="1"/>
        <pt x="131" y="575" on="1"/>
        <pt x="194" y="570" on="0"/>
        <pt x="226" y="570" on="1"/>
        <pt x="338" y="570" on="0"/>
        <pt x="445" y="659" on="0"/>
        <pt x="445" y="756" on="1"/>
        <pt x="445" y="948" on="0"/>
        <pt x="214" y="948" on="1"/>
        <pt x="140" y="948" on="0"/>
        <pt x="100" y="944" on="1"/>
      </contour>
    </TTGlyph>
    <TTGlyph name="glyph00046" xMin="100" yMin="-20" xMax="1386" yMax="1118">
      <contour>
        <pt x="866" y="147" on="1"/>
        <pt x="1025" y="168" on="0"/>
        <pt x="1200" y="384" on="0"/>
        <pt x="1200" y="568" on="1"/>
        <pt x="1200" y="745" on="0"/>
        <pt x="1024" y="948" on="0"/>
        <pt x="871" y="948" on="1"/>
        <pt x="719" y="948" on="0"/>
        <pt x="553" y="812" on="0"/>
        <pt x="553" y="686" on="1"/>
        <pt x="553" y="632" on="0"/>
        <pt x="593" y="540" on="0"/>
        <pt x="625" y="509" on="1"/>
        <pt x="648" y="485" on="1"/>
        <pt x="538" y="367" on="1"/>
        <pt x="467" y="419" on="0"/>
        <pt x="432" y="466" on="1"/>
        <pt x="366" y="458" on="0"/>
        <pt x="286" y="374" on="0"/>
        <pt x="286" y="302" on="1"/>
        <pt x="286" y="238" on="0"/>
        <pt x="381" y="159" on="0"/>
        <pt x="469" y="151" on="1"/>
        <pt x="469" y="-20" on="1"/>
        <pt x="369" y="-20" on="0"/>
        <pt x="198" y="62" on="0"/>
        <pt x="100" y="210" on="0"/>
        <pt x="100" y="302" on="1"/>
        <pt x="100" y="434" on="0"/>
        <pt x="245" y="603" on="0"/>
        <pt x="369" y="628" on="1"/>
        <pt x="367" y="682" on="1"/>
        <pt x="367" y="809" on="0"/>
        <pt x="490" y="1008" on="0"/>
        <pt x="721" y="1118" on="0"/>
        <pt x="871" y="1118" on="1"/>
        <pt x="1106" y="1118" on="0"/>
        <pt x="1386" y="819" on="0"/>
        <pt x="1386" y="566" on="1"/>
        <pt x="1386" y="398" on="0"/>
        <pt x="1258" y="138" on="0"/>
        <pt x="1019" y="-11" on="0"/>
        <pt x="866" y="-20" on="1"/>
      </contour>
    </TTGlyph>
    <TTGlyph name="glyph00047" xMin="100" yMin="-20" xMax="1386" yMax="1118">
      <contour>
        <pt x="866" y="1118" on="1"/>
        <pt x="1103" y="1103" on="0"/>
        <pt x="1386" y="787" on="0"/>
        <pt x="1386" y="532" on="1"/>
        <pt x="1386" y="279" on="0"/>
        <pt x="1105" y="-20" on="0"/>
        <pt x="871" y="-20" on="1"/>
        <pt x="719" y="-20" on="0"/>
        <pt x="489" y="91" on="0"/>
        <pt x="367" y="289" on="0"/>
        <pt x="367" y="416" on="1"/>
        <pt x="369" y="469" on="1"/>
        <pt x="245" y="493" on="0"/>
        <pt x="100" y="665" on="0"/>
        <pt x="100" y="796" on="1"/>
        <pt x="100" y="889" on="0"/>
        <pt x="198" y="1036" on="0"/>
        <pt x="368" y="1118" on="0"/>
        <pt x="469" y="1118" on="1"/>
        <pt x="469" y="947" on="1"/>
        <pt x="381" y="939" on="0"/>
        <pt x="286" y="860" on="0"/>
        <pt x="286" y="796" on="1"/>
        <pt x="286" y="724" on="0"/>
        <pt x="366" y="640" on="0"/>
        <pt x="432" y="632" on="1"/>
        <pt x="470" y="681" on="0"/>
        <pt x="538" y="731" on="1"/>
        <pt x="648" y="613" on="1"/>
        <pt x="625" y="590" on="1"/>
        <pt x="592" y="558" on="0"/>
        <pt x="553" y="466" on="0"/>
        <pt x="553" y="412" on="1"/>
        <pt x="553" y="287" on="0"/>
        <pt x="718" y="150" on="0"/>
        <pt x="871" y="150" on="1"/>
        <pt x="1024" y="150" on="0"/>
        <pt x="1200" y="353" on="0"/>
        <pt x="1200" y="530" on="1"/>
        <pt x="1200" y="713" on="0"/>
        <pt x="1025" y="931" on="0"/>
        <pt x="866" y="951" on="1"/>
      </contour>
    </TTGlyph>
    <TTGlyph name="glyph00048" xMin="80" yMin="-20" xMax="1326" yMax="1118">
      <contour>
        <pt x="642" y="167" on="1"/>
        <pt x="695" y="150" on="0"/>
        <pt x="744" y="150" on="1"/>
        <pt x="858" y="150" on="0"/>
        <pt x="1039" y="268" on="0"/>
        <pt x="1140" y="472" on="0"/>
        <pt x="1140" y="589" on="1"/>
        <pt x="1140" y="753" on="0"/>
        <pt x="978" y="948" on="0"/>
        <pt x="843" y="948" on="1"/>
        <pt x="685" y="948" on="0"/>
        <pt x="448" y="747" on="0"/>
        <pt x="294" y="334" on="0"/>
        <pt x="264" y="0" on="1"/>
        <pt x="80" y="0" on="1"/>
        <pt x="102" y="251" on="0"/>
        <pt x="188" y="596" on="0"/>
        <pt x="324" y="862" on="0"/>
        <pt x="490" y="1028" on="0"/>
        <pt x="702" y="1118" on="0"/>
        <pt x="832" y="1118" on="1"/>
        <pt x="1068" y="1118" on="0"/>
        <pt x="1326" y="846" on="0"/>
        <pt x="1326" y="589" on="1"/>
        <pt x="1326" y="422" on="0"/>
        <pt x="1172" y="134" on="0"/>
        <pt x="911" y="-20" on="0"/>
        <pt x="747" y="-20" on="1"/>
        <pt x="671" y="-20" on="0"/>
        <pt x="593" y="2" on="1"/>
      </contour>
    </TTGlyph>
    <TTGlyph name="glyph00049" xMin="150" yMin="-20" xMax="1396" yMax="1118">
      <contour>
        <pt x="334" y="1098" on="1"/>
        <pt x="334" y="729" on="1"/>
        <pt x="521" y="1118" on="0"/>
        <pt x="902" y="1118" on="1"/>
        <pt x="1144" y="1118" on="0"/>
        <pt x="1396" y="842" on="0"/>
        <pt x="1396" y="589" on="1"/>
        <pt x="1396" y="422" on="0"/>
        <pt x="1242" y="134" on="0"/>
        <pt x="981" y="-20" on="0"/>
        <pt x="817" y="-20" on="1"/>
        <pt x="741" y="-20" on="0"/>
        <pt x="663" y="2" on="1"/>
        <pt x="712" y="167" on="1"/>
        <pt x="765" y="150" on="0"/>
        <pt x="814" y="150" on="1"/>
        <pt x="929" y="150" on="0"/>
        <pt x="1110" y="263" on="0"/>
        <pt x="1210" y="463" on="0"/>
        <pt x="1210" y="579" on="1"/>
        <pt x="1210" y="758" on="0"/>
        <pt x="1049" y="948" on="0"/>
        <pt x="898" y="948" on="1"/>
        <pt x="769" y="948" on="0"/>
        <pt x="564" y="807" on="0"/>
        <pt x="419" y="546" on="0"/>
        <pt x="334" y="164" on="0"/>
        <pt x="334" y="0" on="1"/>
        <pt x="150" y="0" on="1"/>
        <pt x="150" y="1098" on="1"/>
      </contour>
    </TTGlyph>
    <TTGlyph name="glyph00050" xMin="150" yMin="0" xMax="882" yMax="1118">
      <contour>
        <pt x="882" y="946" on="1"/>
        <pt x="776" y="926" on="0"/>
        <pt x="592" y="790" on="0"/>
        <pt x="446" y="578" on="0"/>
        <pt x="343" y="293" on="0"/>
        <pt x="334" y="182" on="1"/>
        <pt x="334" y="0" on="1"/>
        <pt x="150" y="0" on="1"/>
        <pt x="150" y="1098" on="1"/>
        <pt x="334" y="1098" on="1"/>
        <pt x="334" y="684" on="1"/>
        <pt x="379" y="797" on="0"/>
        <pt x="560" y="1007" on="0"/>
        <pt x="771" y="1117" on="0"/>
        <pt x="882" y="1118" on="1"/>
      </contour>
    </TTGlyph>
    <TTGlyph name="glyph00051" xMin="0" yMin="-20" xMax="1187" yMax="1600">
      <contour>
        <pt x="1024" y="-20" on="1"/>
        <pt x="796" y="824" on="1"/>
        <pt x="508" y="0" on="1"/>
        <pt x="327" y="0" on="1"/>
        <pt x="0" y="1563" on="1"/>
        <pt x="172" y="1600" on="1"/>
        <pt x="437" y="313" on="1"/>
        <pt x="712" y="1098" on="1"/>
        <pt x="879" y="1098" on="1"/>
        <pt x="1187" y="35" on="1"/>
      </contour>
    </TTGlyph>
</ttFont>
